<?xml version="1.0" encoding="utf-8"?>
<!-- Generator: Adobe Illustrator 23.0.5, SVG Export Plug-In . SVG Version: 6.00 Build 0)  -->
<svg version="1.1" id="Layer_1" xmlns="http://www.w3.org/2000/svg" xmlns:xlink="http://www.w3.org/1999/xlink" x="0px" y="0px"
	 viewBox="0 0 500 500" style="enable-background:new 0 0 500 500;" xml:space="preserve">
<style type="text/css">
	.st0{fill:#FFFFFF;}
</style>
<path d="M500,200.6c0,5.7,0,11.5,0,17.2c-0.3,5.2-0.4,9.7-1.6,13.9c-1.1,3.8-3.2,7.3-5.2,10.3c-6.3,9.5-13.2,17.6-20.7,25.8
	c-1.2,1.3-2.8,2.5-4,3.8c-6.2,6.6-11.5,14-16.2,22.5c-3.8,6.9-6.6,13.9-10.7,20.3c-4.1,6.3-8.7,11.7-13.8,17.2
	c-2.4,2.6-5.2,5.1-7.8,7.7c-2.6,2.6-5.3,5.1-8,7.5c-5.5,5-11.2,9.7-17.3,13.7c-6.2,4.1-12.7,8-19.3,11.7
	c-13.3,7.5-26.6,14.6-41.3,20.7c-29.2,12.1-55.6,27.4-84.9,39.1c-1.8,0.7-3.7,1.4-5.7,2.1c-2.1,0.7-4.1,1-6.4,1.3
	c-4.4,0.5-8.7,1.5-13.1,2.4c-17.3,3.6-33.2,8.1-50.3,11.7c-8.6,1.8-17.6,3-27.5,3.5c-9.8,0.5-20.1,0.4-30.6,0.4
	c-10.3,0-20.7-0.1-30.5-0.5c-10.2-0.4-18.4-1.9-25.7-5.3c-3.5-1.6-6.9-3.4-10.2-5.3c-3.3-1.9-6.6-3.8-9.4-6.1
	c-5.5-4.4-10.4-10.5-14.3-16.7c-2.1-3.3-4-6.4-5.4-10.1c-1.3-3.7-1.8-8.7-1.5-14c0.5-10,1.3-18.9,1.9-29.1
	c1.2-19.8,1.5-40.3,1.5-60.5c0-10.4,0.3-20.9-0.2-30.6c-0.6-10.3-2.1-18-5.6-25.4c-3.4-7-7.1-13.5-10.4-20.6
	c-3-6.5-5.6-13.5-5.8-22.6c0-0.9,0-1.7,0-2.6c0-5.1,0-10.1,0-15.2c0.1,0,0.1-0.1,0.1-0.2c-0.7-18.2,6-28.8,14.8-37.4
	c2.3-2.2,4.9-3.9,7.3-5.7c2.5-1.9,4.7-4,6.7-6.4c4.1-4.9,6.2-11.1,7.3-18.9c0.6-4.3,0.3-8.4,1.2-11.8c0.9-3.3,2.6-5.9,4.6-8.5
	c3.6-4.9,8.3-9.1,13.3-12.9c9.7-7.4,20.8-14.2,33-19.3c12.3-5.2,26.3-8.6,41.2-11.1c14.7-2.5,30.2-4.8,45.9-6.4
	c32-3.2,66.7-2.9,101-3.6c17.4,0,34.9,0,52.3,0c14.1,0.2,27.1,0.1,40,0.7c6.5,0.3,12.7,0.9,17.6,2.8c4.6,1.8,8.9,4.7,12.7,7.6
	c7.7,5.9,15,12.3,20.9,19.8c5.9,7.5,11,15.8,15.9,24.7c5,9,8.9,18.5,14.2,26.5c5.4,8.2,12.1,14.5,19.4,21.2
	c6.9,6.3,13.7,13.3,19.8,20.9c2.8,3.5,6.1,7.9,8,12.3C499.3,187.8,499.8,194,500,200.6z M481,239.3c6.4-10.2,14.1-27.1,9-43.8
	c-2.1-6.8-6.2-12.5-10.2-17.8c-4.1-5.5-8.3-10.5-13-15c-2.4-2.3-5-4.7-8.1-5.9c-8.3-3.2-19.7-4-29.9-5.1c-2-0.2-4.2-0.1-6.1-0.9
	c6-0.6,13.9-0.5,20.3-0.8c1.9-0.1,5.4-0.1,5.8-1.3c0.5-1.4-2.4-3.8-3.3-4.8c-1.3-1.5-2.3-3.2-3.3-4.7c-6.3-9.9-11.1-21.6-16.6-31.6
	c-3.8-7-7.8-13.8-12.3-19.8c-4.6-6.1-9.9-11.3-15.7-16.4c-2.7-2.4-5.7-4.9-9.1-6.9c-3.4-2-6.9-3.9-11.1-5c-8.9-2.2-19.2-1.7-30-2.1
	c-10.2-0.4-21,0.3-31.9-0.2c-5.1-0.2-10.6-0.1-16-0.1c-5.3,0-11.6-0.1-16.4,0.1c-6,0.3-12.1-0.1-18.2,0.2c-3,0.1-6.1,0.1-9.1,0.1
	c-15,0-30,0.7-44.6,1.4c-17.3,0.8-34.8,2-51.3,3.9c-5.3,0.6-11.3,1.2-15.5,2.9c-0.8,0.3-1.5,0.4-1.9,1.5c2.5,1.3,5.6,1.1,8.5,1.2
	c3.2,0.1,6.5-0.1,9.6-0.1c6.4,0,12.9-0.4,18.8-0.7c12.5-0.7,24.8-1.5,36.5-2.5c5.8-0.5,11.5-1.4,17.3-2.1c5.9-0.7,11.8-1.2,18-1.5
	c12.2-0.6,25.1-0.8,37.2,0.8c11.4,1.5,21.4,4.3,31.2,7.7c9.7,3.4,18.8,7.2,27.1,11.9c12.5,7,24.5,14.6,35.8,22.7
	c2.8,2,5.7,4.1,8.2,6.4c0.7,0.7,2,1.4,1.8,2.7c-2.8-0.6-5.1-2.4-7.4-3.9c-2.3-1.5-4.5-3.1-6.7-4.7c-13.3-9.6-27.6-17.3-43.4-24.7
	c-20.4-9.5-43.2-17.9-73.6-16.6c-14.4,0.6-28.1,2.1-41.8,3.6c-13.5,1.5-27.3,3.2-42,3.4c-7.6,0.1-15,0.1-22.4-0.1
	c-14.6-0.5-30.4-1.1-43.2,1.2c-6.4,1.1-11.6,3.3-17.1,5.6c-5.3,2.2-10.3,4.8-15.2,7.5c-4.8,2.7-9.7,5.4-14.2,8.5
	c-4.4,3-8.9,6.3-12.4,10.3c-3.4,4-5.7,9.8-6,16.7c-0.3,7.6-1.8,13.5-4.3,18.4c-3.7,7.4-10,12.8-16,18c-4,3.5-8,7.4-11,11.7
	c-1.7,2.3-2.5,4.9-3.3,8.1c-2.8,11.9-3,29.8,0.9,40.5c6,16.6,17.6,28.2,18.7,49.4c0.4,7.2,0.3,14.7,0.3,22.4c0,30.4,0.4,60.4-2,88.6
	c-0.6,7.1-1.8,14.7-1.1,21.2c0.4,3.2,1.4,6.1,2.7,8.6c4,7.6,8.8,13.7,14.8,19.3c3.9,3.6,8.7,6.4,13.8,8.9c5.2,2.6,10.4,4.8,16.2,6.5
	c5.8,1.7,12.4,2.5,20,2.7c15.2,0.4,29.9,0.1,44-1.2c13.8-1.2,26.4-4,38.4-7c11.9-3,23.9-6.1,36.3-9.1c6.2-1.5,12.6-3,18.8-3.9
	c6.2-0.9,11.8-3.3,17.2-5.5c21.3-8.5,41.2-19.4,61.9-28.9c10.7-4.9,21.3-8.9,31.4-14c10.1-5.1,19.9-10.3,29.5-15.9
	c9.5-5.5,18.9-11.3,26.9-18.5c12-10.9,24.1-21.4,32.3-35.8c2.8-4.8,4.9-10,7.6-15.1c2.6-5,5.4-9.7,8.6-14.1c2.4-3.3,5.2-6.3,7.8-9.3
	c0.8-1,2.1-1.9,2.1-3.4c-3.2-0.2-5.9,2.1-9.3,1.4c0.6-1.6,2.3-2.5,3.7-3.2c4.7-2.5,9.9-4.1,14-7C473.2,250.5,477.4,245,481,239.3z"
	/>
<path class="st0" d="M500,46.6c0,51.3,0,102.7,0,154c-0.1-6.6-0.7-12.7-2.8-17.5c-2-4.4-5.2-8.8-8-12.3
	c-6.1-7.6-12.9-14.6-19.8-20.9c-7.3-6.7-14-13-19.4-21.2c-5.3-8-9.2-17.5-14.2-26.5c-4.9-8.9-10.1-17.2-15.9-24.7
	C414,70,406.7,63.5,399,57.7c-3.8-2.9-8.1-5.8-12.7-7.6c-4.9-1.9-11.1-2.5-17.6-2.8c-12.9-0.6-25.9-0.5-40-0.7
	C385.8,46.6,442.9,46.6,500,46.6z"/>
<path class="st0" d="M500,217.8c-0.1,78.3,0.3,157.5-0.2,235.7c-166.5,0-332.9,0-499.4,0c-0.1,0-0.2,0-0.3,0c0-82.3,0-164.6,0-246.9
	c0.2,9.2,2.8,16.1,5.8,22.6c3.3,7.1,7,13.6,10.4,20.6c3.5,7.3,5,15.1,5.6,25.4c0.5,9.7,0.2,20.2,0.2,30.6c0,20.2-0.3,40.7-1.5,60.5
	c-0.6,10.2-1.4,19.1-1.9,29.1c-0.3,5.3,0.1,10.3,1.5,14c1.4,3.7,3.4,6.8,5.4,10.1c3.9,6.2,8.8,12.3,14.3,16.7
	c2.8,2.3,6.1,4.2,9.4,6.1c3.3,1.9,6.7,3.7,10.2,5.3c7.3,3.4,15.5,4.9,25.7,5.3c9.8,0.4,20.2,0.5,30.5,0.5c10.5,0,20.8,0.1,30.6-0.4
	c9.9-0.5,18.9-1.7,27.5-3.5c17.1-3.6,32.9-8.1,50.3-11.7c4.4-0.9,8.7-1.9,13.1-2.4c2.3-0.3,4.3-0.6,6.4-1.3c2-0.7,3.9-1.4,5.7-2.1
	c29.3-11.7,55.7-27,84.9-39.1c14.7-6.1,28-13.2,41.3-20.7c6.6-3.7,13.1-7.6,19.3-11.7c6.1-4,11.8-8.7,17.3-13.7
	c2.7-2.4,5.4-4.9,8-7.5c2.6-2.6,5.4-5.1,7.8-7.7c5.1-5.5,9.7-10.9,13.8-17.2c4.1-6.4,6.9-13.4,10.7-20.3c4.7-8.5,10-15.9,16.2-22.5
	c1.2-1.3,2.8-2.5,4-3.8c7.5-8.2,14.4-16.3,20.7-25.8c2-3,4.1-6.5,5.2-10.3C499.6,227.5,499.7,222.9,500,217.8z"/>
<path class="st0" d="M490,195.5c5.1,16.7-2.6,33.6-9,43.8c-3.6,5.7-7.7,11.3-13,15c-4.1,2.9-9.3,4.5-14,7c-1.4,0.7-3.1,1.6-3.7,3.2
	c3.4,0.7,6.1-1.6,9.3-1.4c0,1.5-1.3,2.4-2.1,3.4c-2.6,3-5.4,6-7.8,9.3c-3.2,4.4-6,9.1-8.6,14.1c-2.7,5.1-4.9,10.3-7.6,15.1
	c-8.2,14.4-20.3,24.9-32.3,35.8c-8,7.2-17.4,13-26.9,18.5c-9.7,5.6-19.4,10.8-29.5,15.9c-10,5.1-20.7,9.1-31.4,14
	c-20.7,9.5-40.6,20.4-61.9,28.9c-5.4,2.2-11,4.6-17.2,5.5c-6.2,0.9-12.6,2.4-18.8,3.9c-12.4,3-24.4,6.1-36.3,9.1
	c-12,3-24.6,5.8-38.4,7c-14.1,1.3-28.8,1.6-44,1.2c-7.6-0.2-14.2-1-20-2.7c-5.8-1.7-11-3.9-16.2-6.5c-5.1-2.5-9.9-5.3-13.8-8.9
	c-6-5.5-10.8-11.7-14.8-19.3c-1.3-2.5-2.3-5.5-2.7-8.6c-0.8-6.5,0.5-14.1,1.1-21.2c2.4-28.2,2-58.2,2-88.6c0-7.7,0.1-15.2-0.3-22.4
	c-1.1-21.2-12.7-32.8-18.7-49.4c-3.9-10.7-3.7-28.5-0.9-40.5c0.8-3.2,1.6-5.8,3.3-8.1c3-4.3,7-8.2,11-11.7c6-5.2,12.3-10.6,16-18
	c2.4-4.9,4-10.8,4.3-18.4c0.3-6.9,2.6-12.7,6-16.7c3.5-4,8-7.3,12.4-10.3c4.5-3.1,9.4-5.8,14.2-8.5c4.9-2.7,9.9-5.3,15.2-7.5
	c5.5-2.3,10.7-4.5,17.1-5.6c12.8-2.3,28.6-1.7,43.2-1.2c7.4,0.2,14.8,0.2,22.4,0.1c14.7-0.2,28.5-1.9,42-3.4
	c13.7-1.5,27.4-3,41.8-3.6c30.4-1.3,53.2,7.1,73.6,16.6c15.7,7.4,30.1,15.1,43.4,24.7c2.2,1.6,4.4,3.2,6.7,4.7
	c2.3,1.5,4.6,3.3,7.4,3.9c0.2-1.3-1.1-2-1.8-2.7c-2.5-2.3-5.4-4.4-8.2-6.4c-11.3-8.1-23.3-15.7-35.8-22.7
	c-8.3-4.7-17.4-8.5-27.1-11.9c-9.8-3.4-19.8-6.2-31.2-7.7c-12.1-1.6-25-1.4-37.2-0.8c-6.2,0.3-12.1,0.8-18,1.5
	c-5.8,0.7-11.5,1.6-17.3,2.1c-11.7,1-24,1.8-36.5,2.5c-5.9,0.3-12.4,0.7-18.8,0.7c-3.1,0-6.4,0.3-9.6,0.1c-2.9-0.1-6,0.1-8.5-1.2
	c0.4-1.1,1.1-1.2,1.9-1.5c4.2-1.7,10.2-2.3,15.5-2.9c16.5-1.9,34-3.1,51.3-3.9c14.6-0.7,29.6-1.4,44.6-1.4c3,0,6.1,0,9.1-0.1
	c6.1-0.3,12.2,0.1,18.2-0.2c4.8-0.2,11.1-0.1,16.4-0.1c5.4,0,10.9-0.1,16,0.1c10.9,0.5,21.7-0.2,31.9,0.2c10.8,0.4,21.1-0.1,30,2.1
	c4.2,1,7.7,3,11.1,5c3.4,2,6.4,4.5,9.1,6.9c5.8,5.1,11.1,10.3,15.7,16.4c4.5,6,8.5,12.8,12.3,19.8c5.5,10,10.3,21.7,16.6,31.6
	c1,1.5,2,3.2,3.3,4.7c0.9,1,3.8,3.4,3.3,4.8c-0.4,1.2-3.9,1.2-5.8,1.3c-6.4,0.3-14.3,0.2-20.3,0.8c1.9,0.8,4.1,0.7,6.1,0.9
	c10.2,1.1,21.6,1.9,29.9,5.1c3.1,1.2,5.7,3.6,8.1,5.9c4.7,4.5,8.9,9.5,13,15C483.8,183,487.9,188.7,490,195.5z M475.6,217.8
	c0.7-7.5,0.7-14.4,0.6-22.5c-0.1-4-0.1-7.7-0.7-10.9c-0.6-3.2-1.7-6-3.1-8.5c-2.7-4.9-6.2-9.1-10.4-12.9c-2.1-1.9-4.1-3.6-6.8-4.8
	c-2.7-1.2-6.1-1.5-9.8-1.9c-10-1-22.1-0.8-32.4-0.3c0.6,0.5,1.5,0.5,2.3,0.6c10,1.2,20.5,1.6,30.1,2.9c3.5,0.5,7.4,0.7,10.1,1.9
	c1.7,0.7,3.5,2.9,4.8,4.3c4.2,4.7,8.3,9.8,10.9,15.8c1.8,4.2,2.4,9.7,2.4,15.4c0,5.8-0.1,11.6-0.5,17.1c-0.9,11.7-2.4,20.7-8.9,26.6
	c-3.1,2.8-7.1,4.8-11,6.8c-2.9,1.5-5.8,3.2-8.5,4.8c-0.8,0.5-2.1,0.9-2.2,2.1c3.2,0.1,6.2-1.3,9-2.4c2.8-1.1,5.6-2.2,8.1-3.5
	c5.2-2.6,9.2-6.5,11.9-11.4C474.2,231.9,474.9,224.9,475.6,217.8z M459.7,219.4c2.3-11.7-0.1-21.3-3.7-28.6
	c-3.8-7.6-8.7-14.1-15.3-18.8c-6.7-4.8-15.6-7-27.8-6.4c-0.1,0-0.1,0.1-0.1,0.1c-6,0.3-11.2,0.7-16,1.8c-4.7,1.1-8.5,3.2-12.6,5.1
	c-8,3.6-16.4,7.1-25.9,9.5c-4.6,1.2-10.3,2.2-15.5,1.5c-4.8-0.7-9.5-2.3-13.6-4.1c-3.7-1.6-7.8-3.7-11.3-6.4
	c-2.9-2.2-5.8-6.8-10.4-7.3c-1.9-0.2-5.2,1-5.5,3.4c-0.3,2.4,1.6,4.7,2.6,6.1c1.5,1.9,3,3.4,4.3,4.5c9.4,8.6,19.9,14.9,38.2,14.3
	c5.9-0.2,10.6-0.6,15.8-1.7c9.5-2,18.2-5.2,26.3-8.7c3.1-1.4,6.2-2.6,8.8-4.3c0.9-0.6,1.7-1.3,2.7-1.7c3.9-1.6,9.7-1.7,14.9-1.4
	c4.5,0.3,9,1.1,12.6,2.2c7.4,2.4,11.6,8,15.5,14.1c3.8,6,7.9,13.1,5.8,22.3c-1.4,6-3.9,10.9-5.4,16.8c-0.5,2.1-1,4.8-0.5,6.5
	c0.4,1.2,1.6,2.8,3.7,2.9c2.1,0.1,3.7-2,4.9-3.6C455.9,232.6,458.3,226.1,459.7,219.4z M441.7,218.5c1.1-3.5-4.2-4.8-6.4-5.6
	c-1.9-0.7-3.7-1.5-5.5-2.2c-3.4-1.3-7.3-2.4-10.2-5.2c-2.6-2.5-4-6.1-5.1-10.3c-0.6-2.1-1.3-4.2-2-5.7c-0.7-1.4-2.2-4.3-4.4-4.2
	c-1.8,0.1-2.9,1.6-3.6,2.9c-0.8,1.4-0.9,3.4-1.7,4.7c-1.5,2.4-4.9,4.8-7.7,6.5c-3.1,1.9-6.2,3.4-9.2,5c-18.7,10-39,18.1-60.1,25.1
	c-14.4,4.8-28.8,9.3-43.3,13.5c-14.6,4.3-29.4,8.4-45,11.8c-15.5,3.4-32.4,5.2-50.3,6.5c-18.3,1.3-37.2,0.7-52.8-2.8
	c-15.5-3.5-28.7-9.1-40.1-16.7c-2.6-1.8-5.4-4-7.7-6.5c-4.7-5-6.5-12.3-7.7-20.7c-0.6-4.1-1.1-10.8-4-13c-3.3-2.5-5.3,2.1-6.1,5.5
	c-1.1,4.6-1.4,8.9-4.3,11.3c-1,0.9-1.7,1.6-2.4,2.8c-1.2,2.2-2,5-2.7,7.7c-2.9,11.8-3.4,24.2-4,37.5c-0.3,6.6-0.2,13.6,0.1,20.2
	c0.3,6.8,0.5,13.4,1.3,19.5c1.6,12.1,5.6,22.4,11,30.5c5.7,8.5,13.4,13.9,24,17.5c10.1,3.4,22.1,5.6,34.4,7.1
	c18.4,2.3,38.7,2.9,59.4,2.9c20.6,0,40.8-0.9,59-3.3c12.1-1.6,23.7-4,34.6-6.9c10.9-2.9,21.4-6.3,30.7-10.8
	c9.3-4.5,17.7-9.9,25.8-15.7c12.1-8.7,23.9-17.7,34.2-28c3.4-3.4,6.5-7.2,9.7-11.1c6.1-7.4,12.1-15.4,17.7-23.8
	c2.7-4,5.5-8.4,8.4-12.4c2.1-2.8,4.4-6.1,6.9-8.7c1.3-1.3,2.5-2.2,2.9-4c0.4-1.8-0.7-3.4-0.7-5.1c0-1.7,0.4-3.5,1-5.1
	c1-2.8,2.6-5.6,5.5-6.7c2.9-1,7.2-0.6,11.3-0.9C435.9,221.3,440.8,221.1,441.7,218.5z M390.5,338.2c0.5-0.4,2.2-1.8,0.7-1.7
	c-1.4,0.1-3.8,1.3-5.4,2c-11.2,5-21.6,11-32.1,16.3c-12.3,6.2-25,12.2-37.7,17.6c-12.8,5.5-26.3,10.6-41.3,14
	c-15.1,3.4-30.2,6.6-45.7,9.7c-15.2,3.1-31.1,5.6-48.1,7.2c-16.9,1.6-34.7,1.8-52.7,2.6c-9.2,0.4-18.7,0.8-27,0.2
	c-4.5-0.3-8.4-0.8-11.9-1.9c-3.4-1-6.4-2.7-9.5-4.4c-5.8-3.2-11.8-6.7-17.2-10.5c-2.7-1.9-5.3-4-6.8-7c-1.6-3.1-1.5-7.1-2.5-11.4
	c-0.4,4.6-1.1,9.2-0.3,13.1c0.7,3.7,3.6,5.9,6.3,7.8c2.7,1.9,5.6,3.7,8.5,5.5c2.9,1.8,5.9,3.7,8.8,5.3c3,1.7,6.3,3.2,9.8,4.2
	c3.8,1,7.9,1.5,12.4,1.7c9.1,0.4,18.4,0.2,27.8-0.2c9.1-0.4,18.2-0.5,27.3-0.8c9-0.3,17.9-0.7,26.6-1.5c26.2-2.3,49.5-6.7,72.7-11.7
	c7.7-1.7,15.5-3.1,22.9-5.2c14.9-4.1,29-8.8,42.1-14.2c13.1-5.4,25.9-11.5,38.5-17.8c6.1-3.1,12.3-6.2,18.5-9.6
	C380.3,344.7,386,341.9,390.5,338.2z M387.5,157.8c0.9-0.4,3.2-1.7,2.7-3.2c-0.2-0.8-3.2-1.4-4.3-1.6c-5.7-1.2-11.7-2-17.5-2.3
	c-0.1,0-0.2,0.1-0.2,0.2c0.1,0,0.1,0.1,0.2,0.1c3,1.5,6.9,2.9,10,4.2c1,0.4,2.4,0.7,2.9,1.8c-2.2,1.6-6.5,1.2-8.9,2.6
	C377.6,160.6,383.8,159.6,387.5,157.8z M378.3,126.3c-0.6-2.5-2.5-4.5-4.2-6.4c-1.7-1.9-3.4-3.9-5.2-5.6
	c-11.2-10.5-24.5-18.7-39.9-25c-5.1-2.1-10.3-4.2-15.8-5.8c-5.6-1.6-11.6-2.5-18.1-3.5c-13.8-2-29.9-3.6-45.5-2.8
	c-1.6,0.1-3.1,0.2-4.7,0.3c-9.3,0.8-17.5,2.8-26.2,4.1c-12.2,1.8-24.2,2.8-37.6,2.8c-13,0-26.2-0.8-38.4-1.9
	c-6.1-0.5-12.3-1.2-18.5-1.7c-5.7-0.5-13.8-1.1-19,0.4c-2.8,0.8-5.4,2.7-7.1,4.5c-0.6,0.6-1.4,1.3-1.1,2.6c3.1,0.5,5.2-1.7,7.4-2.9
	c2.3-1.3,5.1-2,8.6-2.1c6.8-0.3,13.5,0.6,20.2,1.3c25.9,2.5,56.1,3.5,81.7,0.3c12.9-1.6,24.7-4.4,38-5c14.4-0.7,27.7,0.8,40.1,2.7
	c6.3,1,12.2,2.1,17.8,3.7c5.6,1.6,10.9,3.5,15.9,5.6c15.4,6.4,28.8,14.3,39.5,25c2.6,2.6,5.5,5.4,8.5,7.6
	C375.7,125.2,376.9,126.2,378.3,126.3z M373.8,168.2c2.6-4.3-3.6-6.4-7-4.6C368.5,165.7,371.1,166.9,373.8,168.2z M363.2,337.1
	c0.4-0.3,1.8-1.3,0.7-1.3c-1.3,0-3.2,1-4.6,1.6c-9.6,3.8-18.7,8.4-27.5,12.5c-21.1,9.8-41.7,18.9-64.5,27c-5.7,2-11.3,4.1-17.2,5.7
	c-6.1,1.7-12.6,2.7-19.5,3.4c-13.8,1.4-28.4,1.8-43.1,2.6c-7.3,0.4-14.6,0.8-21.9,1c-14.1,0.4-30.8,1.8-44-0.3
	c-12.8-2-23.9-7.1-32.3-13.5c-3.2-2.5-6-5.4-9.4-7.7c-1-0.7-2.3-1.9-3.8-1.6c0,1.6,1.1,2.7,2,3.8c6.1,7.6,14.4,12.8,23.9,16.8
	c16.4,6.8,41,6.5,63.5,5.6c14.9-0.6,30-1.2,44.4-2.2c7.4-0.5,14.7-0.8,21.7-1.6c14.1-1.6,25.9-5.2,37.4-9.2
	c29-10.2,55.5-21.8,81.2-35.3C354.5,342.2,359.2,339.8,363.2,337.1z M363.5,130.2c0.4-2.3-1.6-4-2.9-5.5c-1.4-1.6-2.9-3.1-4.3-4.5
	c-9-8.8-19.2-15.9-32.3-20.5c-8.6-3.1-18.1-5.3-29-6.2c-5.4-0.5-11-0.6-16.8-0.8c-5.5-0.2-12.4-0.3-17.8-0.1
	c-4.6,0.2-9.3,0.2-13.2,0.9c-1.2,0.2-2.7,0.5-3.4,1.4c2.7,1,5.9,0.8,8.9,0.8c3.2,0,6.4-0.1,9.6-0.2c19.4-0.8,38.3,0.4,53.1,5
	c5.2,1.6,9.9,3.2,14.3,5.2c4.4,2,8.4,4.5,12.2,7.3c3.8,2.8,7.5,5.5,10.8,8.7c2.5,2.4,4.9,4.9,7.6,7
	C361.2,129.3,362.2,130.3,363.5,130.2z M357.1,162.3c2.4-1.7,4.8-3.9,3.8-7.7c-0.7-2.8-2.8-5.5-4.7-7.6c-6.1-6.5-13-11.7-22.2-14.8
	c-6.4-2.2-13.2-3.4-20.4-4.3c-9-1.1-19.9-1.4-29-0.6c-11.3,1-19.1,4.8-27.2,9.2c-6.4,3.5-13.2,7.7-18.4,12.7
	c-1.8,1.7-3.8,3.6-4.6,5.8c-0.9,2.6-0.7,7,0.5,9.3c0.9,1.7,2.4,3,3.8,4.3c4.3,3.9,9.1,7.1,14.2,10.1c15.6-7.7,29.8-15.5,51.1-17.7
	c10.3-1,22,0.2,31.5,2.1c4.4,0.9,10.3,2.2,15.4,1.6C353.2,164.4,355.4,163.5,357.1,162.3z M319.1,219.8c1.3-2.6-1.2-3.1-3.5-3.5
	c-8.2-1.5-17.5-0.8-25.9-1.6c-4.8-0.5-11.5-0.5-11.5-5.3c0-1.3,2.3-4.7-0.7-4.5c-2.4,0.2-3.2,5.2-2.2,7.7c1.7,4,7.2,4.4,12.3,5
	c6.9,0.8,14.2,1.1,21.1,1.6C312.4,219.4,315.9,219.8,319.1,219.8z M272.1,224.7c0-4,0-7.5-1-10.1c-2.6-6.9-11.6-9.6-20.7-9.2
	c-2.4,0.1-4.6,0.2-6.8,1c-1.7,0.6-4,1.5-4.1,3.6c-0.1,2.1,1.9,3.7,3.7,4.3c2.6,0.9,4.7,0.9,6.8,1.3c4,0.8,9.9,1.6,11.3,4.9
	c1.5,3.7-0.4,7.9-2,10c-1.6,2.2-3.9,3-4.7,5.8c-0.6,2.3,0.3,4.2,1.1,5.5c0.5,0.8,1.3,2.1,2.6,2.3c1,0.1,2.5-0.6,3.5-1.1
	c3-1.5,6.5-4,8-6.1C271.8,234,272.1,229.9,272.1,224.7z M253.5,101.4c0.8-1,1.9-2.2,1.6-3.7c-0.3-0.2-0.6-0.2-0.9-0.1
	c-2.3,0.6-4.7,3.1-6.3,4.9c-1.7,1.9-3.2,3.9-4.3,6.4c-2.4,5.3-2.8,11.9-2.1,18.6c0.9-1.1,1-2.7,1.3-4.1c1-4.9,2.2-8.7,4-12.4
	C248.6,107.2,251.2,104.5,253.5,101.4z M247.4,231.6c0.4-6.4-3.1-7.1-8.8-7.6c-3.2-0.3-6.7-0.4-9.9-0.2c-4.1,0.2-7.7,0.5-11.5,1.7
	c-2.4,0.8-7.6,2.6-7.1,5.9c0.3,1.9,3,2.5,5.5,2.8c5.9,0.6,10.6-0.3,16.2,0.1c2.5,0.2,5.5,0.5,7,1.4c1.3,0.8,1.6,2.9,3.9,2.9
	C245.4,238.6,247.2,234.9,247.4,231.6z M195.8,166.3c0.9-0.8,2.6-2.2,2.5-3.6c-0.1-1.4-2.2-2.3-3.5-2.7c-1.7-0.5-3.6-0.8-5.3-0.9
	c-4.4-0.2-7.7-0.7-10.5-1.9c-6-2.5-9.9-6.8-15-9.8c-5.2-3.1-10.8-5.4-18.3-6.5c-9.6-1.4-23.6-2.3-33.4-0.5
	c-5.9,1.1-10.1,3.8-13.8,7.3c-1.4,1.4-4.2,3.8-4.2,6.4c0,2.5,2.5,4.7,4.2,5.6c2.1,1.2,5.8,1.7,8.5,2.2c9.1,1.5,19.6,2.1,29,3.2
	c9.4,1.1,18.7,2.7,26.3,5.8c2.5,1,5.5,2.4,6.6,4.2c1.6,2.5,0.9,7.7,0.5,11.5c-0.4,3.7-1.2,6.6-2.7,8.8c-1.7,2.3-4.4,3.9-7.3,5.7
	c-8.3,5.1-15.7,10.1-22.7,16.5c-2.1,1.9-4.3,4.5-6.6,6.4c-2.3,1.9-5.2,4-8.6,4.5c-5.5,0.8-9.7,3.5-13.1,6.5c-1.1,1-2.7,2-2.7,3.7
	c2.7-0.1,5-1.5,7.2-2.7c4.7-2.5,8.7-4.3,14-6.2c2.4-0.9,5.6-2.3,8.2-1.6c2.7,0.8,3.4,5.2,6.3,5.2c1.9,0,2.6-2.1,4.4-2.2
	c2.3-0.1,4.6,2.1,6.2,3.5c5.3,4.5,9.6,9.6,14.8,14.4c3.7,3.4,7.2,5.6,14.2,5.1c6.1-0.4,13-2.3,14.9-7.4c1.2-3.4-1.7-7-4.2-7.2
	c-3.3-0.3-5.2,3.2-7.9,3.8c-3.7,0.9-7.7-1.5-9.9-3.1c-4.7-3.4-8.3-7.5-11.6-12c-1.6-2.2-3.6-5-3.9-7.9c-0.4-3.9,3.2-8.7,5.8-9.9
	c1-0.5,2.3-0.5,3.3-1c2.7-1.2,5-3.1,6.8-4.9c2.1-2,3.9-4,4.9-6.8c1.1-2.9,1.3-6.4,1.4-10.3c0.1-3.7-0.2-7.7,0.9-10.8
	c1.6-4.3,6.8-5.6,10.7-7.9C193.4,168,194.7,167.2,195.8,166.3z M179,376.5c9.2,0,18.4,0.2,26.8-0.6c-17.1-0.8-36.4-0.9-53.5,0
	C160.6,376.7,169.8,376.5,179,376.5z M180.5,105.6c0.4-1.5-3.3-2.5-4.4-2.8c-2.5-0.7-4.2-0.9-6.3-1.2c-8.9-1.5-17.7-2.4-26.9-3.1
	c-4.6-0.4-9.4-0.9-14.4-0.6c-5.1,0.3-9.4,1.8-13.6,3.8c-4,1.9-7.7,3.8-11,6c-7.1,4.8-12.7,10.3-11.9,21.7c1-0.1,1.4-1.2,1.7-1.9
	c1.3-2.7,2.1-5.6,3.6-8c3.8-6.3,10.3-10.1,17-13.8c3.3-1.8,7.1-3.6,11.1-4.3c4.5-0.8,9.8-0.3,14.6,0c12.3,0.9,23.5,1.8,34.1,4.4
	C175.2,106,180,107.2,180.5,105.6z M173.9,142.7c1.6-8.7,1.3-21.4-2.7-27c-0.6-0.8-1.7-1.9-2.5-2.2c-2.8-1.1-1.6,2.5-1.2,3.4
	c0.6,1.4,1.2,2.1,1.7,2.9c2.9,5.1,3.9,11.7,4.2,18.8C173.5,140,173.2,141.5,173.9,142.7z M119.1,201c2.7-1.6,6.4-4.4,6.3-8.6
	c-0.2-6.3-7.3-4-11.2-2.3c-2.7,1.2-5.1,2.9-7.9,3c-3.8,0.2-6.9-2.6-9.3-4.3c-2.3-1.6-5-3.7-7.5-5.2c-5.4-3.3-11.3-5-20.6-4.9
	c-0.1,0-0.1,0.1-0.1,0.1c-5.6,0.1-11.2,0.5-16.2,2.2c-4.4,1.5-8.6,4.2-10.1,8.2c-0.5,1.2-0.6,1.7-0.5,2.6c0.1,1.9,1.6,4,3.2,4.3
	c2.3,0.5,4.8-0.9,6.3-1.6c1.9-0.9,3.5-2.1,5.2-2.8c3.6-1.6,7.1-2.2,11.7-2.4c4.3-0.2,9,0.2,12.1,1.9c2.1,1.1,3.4,2.9,4.6,4.8
	c1.3,2,1.8,4.5,3.3,6.2c2.2,2.5,6.9,2.9,11.8,2.7C107.6,204.6,114.4,203.7,119.1,201z M87.8,155.8c0.2-2.1-3-2.4-5.1-2.3
	c-1.9,0.1-3.2,0.4-4.9,0.7c-4,0.6-8.3,0.8-12.7,1c-6.4,0.2-12.3-0.3-17.6,0.6c-5.2,0.8-8.3,3.6-11.7,6.5c-3.2,2.7-6.5,5.8-10.3,7.9
	c-0.8,0.4-1.7,0.5-2.4,1c-1.1,0.8-2.2,2.7-3,4.1c-2.6,4.3-5.3,9.9-6.1,15.3c-0.3,2.2-0.1,4.7-0.1,7c0,7,1.5,13.3,2.8,18.6
	c1,4,2.1,7.4,4.4,9.8c5.5,5.7,14.8,9.7,23.1,12.5c1.1,0.4,5.1,1.8,5.7,0.7c0.7-1.2-2.3-2.4-2.9-2.7c-4.2-2-8.1-3.7-12-5.7
	c-5.6-2.8-10.6-4.9-13.1-10.5c-1.2-2.7-2-5.8-2.8-9c-0.8-3.2-1.6-6.5-2.1-9.7c-1.5-10.8,2.4-21,8-26.6c1.9-1.9,4.4-3.1,7-4.8
	c2.3-1.6,4.6-3.3,6.6-5.2c2.1-1.9,3.8-4.2,6.3-5.5c4.9-2.5,14.6-1.4,21.6-1.4c4,0,7.7-0.1,11.7-0.1C81,157.9,87.6,158,87.8,155.8z
	 M49.6,172.9c1-0.7,2.3-1.5,2.6-2.8c-0.4-0.4-0.9-0.4-1.6-0.4c-2.7,0.1-5.8,1.5-8.5,2.6c-2.3,1-5.4,2.4-6.9,3.9
	c-1.7,1.7-2.4,4.9-3.1,7.8c-1.1,4.9-1.9,10.2-2.3,15.4c-0.2,2.8-0.5,5.7-0.3,8.6c0.4,5,3.9,8.3,6.9,10.9c1.1,0.9,2.2,1.9,3.4,2.7
	c1.3,0.8,2.8,1.9,4.4,1.4c0.5-1-0.4-1.8-0.9-2.5c-1.8-2.3-3.6-4.1-5.7-6c-2.8-2.6-5.4-5-5.4-10.2c0-4.4,0.9-8.4,1.5-12.5
	c0.6-3.9,1.3-8.2,3.2-10.9C39.7,177,45.7,175.5,49.6,172.9z"/>
<path d="M476.2,195.3c0.1,8.1,0.1,15-0.6,22.5c-0.7,7.1-1.4,14.2-4.1,19.2c-2.7,4.9-6.7,8.8-11.9,11.4c-2.5,1.3-5.3,2.4-8.1,3.5
	c-2.8,1.1-5.8,2.5-9,2.4c0.1-1.2,1.4-1.6,2.2-2.1c2.7-1.6,5.6-3.3,8.5-4.8c3.9-2,7.9-4,11-6.8c6.5-5.9,8-14.9,8.9-26.6
	c0.4-5.5,0.5-11.3,0.5-17.1c0-5.7-0.6-11.2-2.4-15.4c-2.6-6-6.7-11.1-10.9-15.8c-1.3-1.4-3.1-3.6-4.8-4.3c-2.7-1.2-6.6-1.4-10.1-1.9
	c-9.6-1.3-20.1-1.7-30.1-2.9c-0.8-0.1-1.7-0.1-2.3-0.6c10.3-0.5,22.4-0.7,32.4,0.3c3.7,0.4,7.1,0.7,9.8,1.9c2.7,1.2,4.7,2.9,6.8,4.8
	c4.2,3.7,7.7,8,10.4,12.9c1.4,2.5,2.5,5.3,3.1,8.5C476.1,187.6,476.1,191.3,476.2,195.3z"/>
<path d="M456,190.8c3.6,7.3,6,17,3.7,28.6c-1.3,6.7-3.8,13.2-7.5,18.1c-1.2,1.6-2.8,3.7-4.9,3.6c-2.1-0.1-3.3-1.7-3.7-2.9
	c-0.5-1.7,0-4.4,0.5-6.5c1.5-5.9,4-10.8,5.4-16.8c2.1-9.1-2-16.3-5.8-22.3c-3.9-6.1-8.1-11.8-15.5-14.1c-3.6-1.1-8.1-1.9-12.6-2.2
	c-5.1-0.3-11-0.2-14.9,1.4c-1,0.4-1.8,1.1-2.7,1.7c-2.6,1.7-5.7,2.9-8.8,4.3c-8.1,3.5-16.8,6.7-26.3,8.7c-5.2,1.1-9.9,1.5-15.8,1.7
	c-18.3,0.6-28.8-5.7-38.2-14.3c-1.3-1.2-2.8-2.6-4.3-4.5c-1-1.4-2.9-3.7-2.6-6.1c0.3-2.4,3.6-3.6,5.5-3.4c4.6,0.5,7.5,5.1,10.4,7.3
	c3.5,2.7,7.6,4.8,11.3,6.4c4.1,1.8,8.8,3.4,13.6,4.1c5.2,0.7,10.9-0.3,15.5-1.5c9.5-2.4,17.9-5.9,25.9-9.5c4.1-1.9,7.9-4,12.6-5.1
	c4.8-1.1,10-1.5,16-1.8c0,0,0-0.1,0.1-0.1c12.2-0.6,21.1,1.6,27.8,6.4C447.3,176.7,452.2,183.1,456,190.8z"/>
<path d="M435.3,212.9c2.2,0.8,7.5,2.1,6.4,5.6c-0.8,2.7-5.7,2.9-9.1,3.1c-4.1,0.3-8.4-0.1-11.3,0.9c-2.9,1.1-4.5,3.9-5.5,6.7
	c-0.6,1.6-1,3.4-1,5.1c0,1.8,1.1,3.3,0.7,5.1c-0.4,1.8-1.6,2.7-2.9,4c-2.4,2.6-4.8,5.9-6.9,8.7c-2.9,4-5.7,8.4-8.4,12.4
	c-5.6,8.4-11.6,16.4-17.7,23.8c-3.2,3.9-6.3,7.6-9.7,11.1c-10.3,10.3-22.1,19.3-34.2,28c-8.1,5.8-16.5,11.2-25.8,15.7
	c-9.3,4.5-19.8,7.9-30.7,10.8c-10.9,2.9-22.5,5.3-34.6,6.9c-18.2,2.4-38.4,3.3-59,3.3c-20.6,0-41-0.6-59.4-2.9
	c-12.3-1.5-24.3-3.7-34.4-7.1c-10.6-3.6-18.3-9-24-17.5c-5.4-8.1-9.4-18.4-11-30.5c-0.8-6.1-1-12.7-1.3-19.5
	c-0.3-6.6-0.4-13.6-0.1-20.2c0.6-13.3,1.1-25.7,4-37.5c0.7-2.7,1.5-5.5,2.7-7.7c0.7-1.2,1.4-1.9,2.4-2.8c2.9-2.4,3.2-6.7,4.3-11.3
	c0.8-3.4,2.8-8,6.1-5.5c2.9,2.2,3.4,8.9,4,13c1.2,8.3,3,15.6,7.7,20.7c2.3,2.5,5.1,4.7,7.7,6.5c11.3,7.6,24.6,13.2,40.1,16.7
	c15.6,3.5,34.4,4.1,52.8,2.8c17.9-1.3,34.8-3.1,50.3-6.5c15.6-3.4,30.4-7.5,45-11.8c14.5-4.2,28.9-8.7,43.3-13.5
	c21.1-7,41.4-15.1,60.1-25.1c3-1.6,6.1-3.1,9.2-5c2.8-1.8,6.2-4.1,7.7-6.5c0.8-1.2,0.9-3.3,1.7-4.7c0.7-1.3,1.8-2.8,3.6-2.9
	c2.2-0.1,3.7,2.8,4.4,4.2c0.7,1.5,1.4,3.6,2,5.7c1.1,4.2,2.5,7.8,5.1,10.3c2.9,2.8,6.8,3.9,10.2,5.2
	C431.5,211.3,433.4,212.2,435.3,212.9z M406.6,220c1-3.5,2.8-11.2-2.8-10.1c-4.2,0.8-8.2,2.8-11.9,4.6c-7.5,3.7-14.5,7.1-22,11.1
	c-3.4,1.8-7.7,4.2-9.5,7.1c-1.5,2.4-1.9,6.4-2.2,10.4c-0.3,4.1-0.5,8.4,0.8,11.5c6-1.8,11-4.6,16.4-7.1c5.2-2.4,10.5-5,15.5-8
	c4.9-2.9,9.4-5.9,12.3-11.2C404.5,225.9,405.6,223.1,406.6,220z M387.8,257.8c0.5-0.8,1.2-1.5,1.1-2.5c0,0-0.1,0-0.1,0
	c-4.9,1.5-9.7,3.9-15,6.3c-4.6,2.1-10.2,4.6-13.2,7.7c-1.8,1.8-2.9,4.7-3.5,7.9c-0.6,3.2-1.1,7-0.1,10.3c0.5,1.7,2.3,4,4.4,3.7
	c1.3-0.2,3.2-2.6,4.2-3.7c1.4-1.5,2.6-3,3.7-4.3C375.9,275.1,382.2,266.8,387.8,257.8z M347,304.9c1.6-1.3,4.3-3.1,4.2-5.4
	c-0.1-2-1.9-3.1-2.6-4.3c-1.7-2.8-2.9-6.4-3.1-10.9c-0.1-2.1,0.4-5.1-0.9-6.1c-0.6-0.4-1.7-0.3-2.2-0.2c-0.1,0-0.1,0-0.2,0
	c-4.3,0.9-7.5,2.8-11.2,4.5c-3.7,1.7-7.5,3.3-11,4.8c-5.6,2.3-11.1,4.8-17.3,6.3c-2.3,0.6-4.4,1.2-5.8,2.1c-1.6,1.1-3.2,2.8-3.3,5.9
	c-0.1,3,0.9,6.1,1.7,8.8c1.6,5.4,3.8,10.4,6.2,14.9c1,2,2.6,5.4,4.9,5.7c2.3,0.3,4.9-1.9,6.6-2.9c6.2-3.8,11.6-7.4,17.3-11.3
	C335.9,313,341.7,309.3,347,304.9z M348,242.6c0.5-2.9-0.4-6.2-2.2-6.2c-1.3,0-3,0.5-4.4,0.9c-9.6,2.6-18.1,5.6-27.5,8.5
	c-7.7,2.3-16.2,4.4-23.8,7.1c-2.3,0.8-5.6,2.3-6.2,4.1c-0.5,1.7,0.2,4,0.6,5.7c0.8,3.7,1.6,7.4,2.6,10.9c0.4,1.3,1.1,4.2,2.3,4.5
	c0.8,0.2,3.5-1,4.8-1.5c1.7-0.6,3.3-1.3,4.7-1.8c8.8-3.4,16.9-7.4,26.6-9.4c0.9-0.2,1.9-0.2,2.9-0.4c2.2-0.5,4.8-2.6,6.6-4.2
	c3.7-3.3,7-7,9.7-11.1C346.1,247.5,347.5,245.2,348,242.6z M292.1,335.8c0.4-1.6-0.3-3.5-0.7-4.7c-2.6-7.2-6.9-11.7-8.3-20
	c-0.2-1.1-0.4-2.9-0.4-5.2c0-3.6-0.2-5.4-3-5.1c-2.4,0.3-4.2,1.1-6.2,1.8c-9.9,3.4-19.1,6.7-29.8,9.5c-3.7,1-9.1,1.6-11.4,4.3
	c-1.6,1.8-1.8,5.8-1.8,9.2c0,3,0.1,5.8,0.3,9c0.3,5.2-0.1,13.5,3.3,15.4c1.9,1.1,5.5,0.6,8.1,0.3c8.5-1,16-2.7,23.2-4.4
	c7.2-1.7,14.6-3.7,21.3-6.3C288.6,338.9,291.6,337.8,292.1,335.8z M276.5,279.8c0.3-1.5-0.6-3.7-1-5.3c-0.5-2-1-3.8-1.3-5.3
	c-0.9-3.8-1.3-7.1-3.8-9.4c-2.1,0.2-4.5,0.8-6.8,1.2c-2.1,0.4-4.2,0.8-6.2,1.2c-8.5,1.6-16.5,3-24.6,5c-3.8,0.9-8.4,2-10.4,4.4
	c-1.6,1.9-1.7,5.3-2,9c-0.2,2.9-0.9,7,0.4,8.9c0.9,1.4,4,1.6,6.9,1.7c8.6,0.3,16.9-1.3,23.3-2.5c7.2-1.3,14.4-2.8,20.6-5.2
	C273.6,282.8,276.1,281.7,276.5,279.8z M220.4,345c0.4-6.3,0-12.6-0.6-18.9c-0.3-2.9-0.7-7-2.3-7.6c-0.6-0.2-1.4,0-1.4,0
	c-1.6,0.2-2.9,0.8-4.4,1.1c-7.5,1.5-15.6,2.1-24,2.8c-3.1,0.3-7.1,0.6-8.2,2.5c-0.9,1.6-0.4,5.6-0.1,7.5c0.8,4.7,1.7,8.7,2.7,13.3
	c0.5,2.2,0.7,4.6,1.9,6.1c1.7,2,5.3,2,8.9,2.2c6.4,0.3,12,0,17.4-0.4c2.3-0.2,6,0,7.8-1.1C219.9,351.5,220.2,348.2,220.4,345z
	 M208.1,289.2c1.5-1.6,1.3-5.3,1.3-8.5c0-3.3,0.1-7.2-1.3-8.6c-1.1-1.1-3.4-1.2-6-1.1c-8.9,0.4-17.5,2-26,3.1
	c-0.9,2.3-1.4,4.6-2,7.3c-0.5,2.1-1.7,6-0.6,7.9c1,1.6,4.9,1.8,7.7,1.9c3,0.1,6.4,0.1,9.6,0.1C196.2,291.3,205.6,291.9,208.1,289.2z
	 M170.5,353c1.3-1.5,0.4-5,0.1-7c-0.9-5.2-1.7-8.9-3-13.2c-0.6-2-1.1-4.5-2.5-5.7c-2.2-1.8-9-1.6-12.4-1.4c-3.2,0.2-10.9,0-11.7,2.4
	c-0.7,2.1,1,5.1,1.8,6.9c1.9,4.4,3.6,8,6,11.9c1.1,1.8,2.4,4.1,3.9,5.1c2,1.3,5.4,1.6,8.6,1.8C163.9,354,169.1,354.6,170.5,353z
	 M162.7,283.8c0.3-2.3,0.7-5.6-0.1-7.2c-1.1-2-3.7-2.6-6.6-3.2c-5.9-1.2-10.9-1.8-16.6-2.5c-2.9-0.4-6.2-0.9-9-0.6
	c-4.3,0.5-4.8,3.7-6,7.6c-0.4,1.2-0.9,2.6-1.2,3.9c-0.4,1.4-0.8,3.3-0.3,4.5c0.9,2,5.6,2.5,8,2.9c6.9,1.2,12.7,1.4,20.2,1.8
	c3.4,0.2,8.2,0.2,9.8-1.2C162.2,288.7,162.4,286.2,162.7,283.8z M135.3,350.1c0.4-0.9-0.3-2.4-0.7-3.5c-2.1-5.7-3.4-11.2-5.9-16.3
	c-0.8-1.7-2.3-4.6-3.8-5.1c-1-0.3-2.4-0.2-3.5-0.4c-1.1-0.2-2.2-0.4-3.3-0.6c-1.9-0.4-4.8-1.8-6.4-1.4c-1.2,0.3-0.7,1.5-0.2,2.8
	c2,5,4.3,8.2,6.2,13.3c0.7,1.8,1.8,4.4,1.7,6.2c0,0.8-0.5,1.3-0.4,1.9c0.2,0.9,2.2,1.7,3.2,2.1c1.4,0.5,2.9,0.7,4.3,1
	C128.2,350.5,134.5,352.1,135.3,350.1z M113.2,273.4c0.4-1.5,1.2-3.4,1-5c-0.4-3.1-4.7-5-7.1-6.2c-1.5-0.7-2.8-1.3-4.2-1.9
	c-1.4-0.7-2.9-1.4-4.7-1.5c-1.6-0.1-2.7,3.4-3.1,5.3c-1.2,6.2-0.1,15.3,2.5,19.3c2.5,3.9,7.4,3.6,12.6,4.9c1.7-2.6,1.3-6.3,1.9-10
	C112.4,276.7,112.8,275,113.2,273.4z M107.2,345.5c0.1-1.4-0.6-2.7-1.1-3.9c-2.5-5.9-5.4-12-8.8-17.2c-1.3-1.9-3-4.7-4.9-5.6
	c-2.5-1.1-2.9,0.5-2.3,2.9c0.8,3.4,2.2,6.2,2.4,9.8c0.2,2.6-0.2,4.1-1.7,4.8c-1.2,0.5-4.2-0.2-5.9,1c0.4,1.9,2.4,2.9,4.1,3.7
	c3.7,1.8,7.6,2.7,11.8,3.8C102.9,345.4,105.1,346.4,107.2,345.5z M84.8,255.8c0-2.2,0.1-7.8-1.7-7.4c-0.1,0-0.2,0-0.3,0.1
	c-3.4,3.4-5.8,11.6-7.5,17.1c-0.6,2-1.5,4.4-1.4,6.9c0.1,2.3,1.6,3.3,3.2,4.5c1,0.7,2.5,2.4,4,2c1.4-0.3,2-4.4,2.3-6.6
	C84.2,266.7,84.8,262.2,84.8,255.8z M79.6,334.9c1.1-0.1,0.9-2.5,0.7-3.5c-0.8-4-2.3-7.1-3.8-10.2c-2.1-4.3-4.2-8.2-7-11.6
	c-0.1,0-0.1,0-0.2,0c0-0.1,0-0.1-0.1-0.1c0,0.1,0,0.2-0.1,0.3c0.3,2.4,1.1,4.8,2,6.9c2.1,5.2,4.4,10.5,6.6,15.6
	C78.1,333.2,78.7,335,79.6,334.9z M72.8,239.8c0.3-0.8,0.8-2.2,0-2.9c-2,0.7-5.1,6.6-4.4,9.3c1.6-0.4,2.6-2.3,3.3-3.9
	C72,241.6,72.5,240.6,72.8,239.8z"/>
<path class="st0" d="M403.8,209.9c5.6-1.1,3.8,6.6,2.8,10.1c-0.9,3.2-2.1,5.9-3.4,8.3c-2.9,5.3-7.4,8.3-12.3,11.2
	c-5,3-10.3,5.6-15.5,8c-5.4,2.5-10.4,5.3-16.4,7.1c-1.3-3.1-1.1-7.4-0.8-11.5c0.3-4,0.7-8,2.2-10.4c1.8-2.9,6.1-5.3,9.5-7.1
	c7.5-4,14.5-7.4,22-11.1C395.5,212.7,399.6,210.7,403.8,209.9z"/>
<path d="M391.2,336.5c1.5-0.1-0.2,1.3-0.7,1.7c-4.5,3.6-10.2,6.5-15.3,9.3c-6.2,3.4-12.4,6.5-18.5,9.6
	c-12.6,6.3-25.4,12.4-38.5,17.8c-13.1,5.4-27.2,10.1-42.1,14.2c-7.4,2.1-15.2,3.5-22.9,5.2c-23.2,5-46.4,9.4-72.7,11.7
	c-8.7,0.8-17.6,1.2-26.6,1.5c-9.1,0.3-18.2,0.4-27.3,0.8c-9.4,0.4-18.7,0.6-27.8,0.2c-4.5-0.2-8.6-0.7-12.4-1.7
	c-3.5-1-6.8-2.5-9.8-4.2c-2.9-1.6-5.9-3.5-8.8-5.3c-2.9-1.8-5.8-3.6-8.5-5.5c-2.7-1.9-5.6-4.1-6.3-7.8c-0.8-3.9-0.1-8.5,0.3-13.1
	c1,4.3,0.9,8.3,2.5,11.4c1.5,3,4.1,5.1,6.8,7c5.4,3.8,11.4,7.3,17.2,10.5c3.1,1.7,6.1,3.4,9.5,4.4c3.5,1.1,7.4,1.6,11.9,1.9
	c8.3,0.6,17.7,0.2,27-0.2c17.9-0.8,35.8-1,52.7-2.6c17-1.6,32.9-4.1,48.1-7.2c15.5-3.1,30.6-6.3,45.7-9.7c15-3.4,28.5-8.5,41.3-14
	c12.7-5.4,25.4-11.4,37.7-17.6c10.5-5.3,20.9-11.3,32.1-16.3C387.4,337.8,389.7,336.6,391.2,336.5z"/>
<path d="M390.2,154.6c0.5,1.5-1.8,2.8-2.7,3.2c-3.7,1.9-9.9,2.8-15.1,1.8c2.4-1.4,6.7-1,8.9-2.6c-0.5-1.1-1.9-1.4-2.9-1.8
	c-3.1-1.3-7-2.7-10-4.2c-0.1,0-0.1-0.1-0.2-0.1c0-0.1,0.1-0.2,0.2-0.2c5.8,0.3,11.8,1.1,17.5,2.3C387,153.2,389.9,153.8,390.2,154.6
	z"/>
<path class="st0" d="M388.9,255.3c0.1,1-0.6,1.8-1.1,2.5c-5.5,8.9-11.8,17.3-18.5,25.4c-1.1,1.3-2.3,2.8-3.7,4.3
	c-1,1.1-2.9,3.5-4.2,3.7c-2.1,0.3-3.9-2-4.4-3.7c-1-3.4-0.5-7.1,0.1-10.3c0.6-3.2,1.7-6.1,3.5-7.9c3-3.1,8.6-5.6,13.2-7.7
	C379.1,259.2,383.9,256.8,388.9,255.3C388.8,255.3,388.8,255.3,388.9,255.3z"/>
<path d="M374.1,119.9c1.7,1.9,3.6,3.9,4.2,6.4c-1.4-0.1-2.6-1-3.6-1.8c-3-2.2-5.9-5-8.5-7.6c-10.7-10.7-24.1-18.6-39.5-25
	c-5-2.1-10.3-4-15.9-5.6c-5.6-1.6-11.5-2.7-17.8-3.7c-12.4-1.9-25.7-3.4-40.1-2.7c-13.3,0.6-25.1,3.4-38,5
	c-25.6,3.2-55.8,2.2-81.7-0.3c-6.7-0.7-13.4-1.6-20.2-1.3c-3.5,0.1-6.3,0.8-8.6,2.1c-2.2,1.2-4.3,3.4-7.4,2.9
	c-0.3-1.3,0.5-2,1.1-2.6c1.7-1.8,4.3-3.7,7.1-4.5c5.2-1.5,13.3-0.9,19-0.4c6.2,0.5,12.4,1.2,18.5,1.7c12.2,1.1,25.4,1.9,38.4,1.9
	c13.4,0,25.4-1,37.6-2.8c8.7-1.3,16.9-3.3,26.2-4.1c1.6-0.1,3.1-0.2,4.7-0.3c15.6-0.8,31.7,0.8,45.5,2.8c6.5,0.9,12.5,1.9,18.1,3.5
	c5.5,1.6,10.7,3.7,15.8,5.8c15.4,6.3,28.7,14.5,39.9,25C370.7,116,372.4,118,374.1,119.9z"/>
<path d="M366.8,163.6c3.4-1.8,9.6,0.3,7,4.6C371.1,166.9,368.5,165.7,366.8,163.6z"/>
<path d="M363.9,335.8c1.1,0-0.3,1-0.7,1.3c-4,2.7-8.6,5-13,7.3c-25.7,13.5-52.2,25.1-81.2,35.3c-11.5,4-23.3,7.6-37.4,9.2
	c-7,0.8-14.3,1.1-21.7,1.6c-14.4,1-29.5,1.6-44.4,2.2c-22.5,0.9-47.1,1.2-63.5-5.6c-9.5-3.9-17.8-9.2-23.9-16.8
	c-0.9-1.1-2-2.2-2-3.8c1.5-0.3,2.8,0.9,3.8,1.6c3.4,2.3,6.2,5.2,9.4,7.7c8.4,6.4,19.5,11.5,32.3,13.5c13.2,2.1,29.9,0.7,44,0.3
	c7.3-0.2,14.6-0.6,21.9-1c14.7-0.8,29.2-1.2,43.1-2.6c6.9-0.7,13.4-1.7,19.5-3.4c5.9-1.6,11.5-3.7,17.2-5.7
	c22.8-8.1,43.4-17.2,64.5-27c8.8-4.1,17.9-8.7,27.5-12.5C360.7,336.9,362.6,335.8,363.9,335.8z"/>
<path d="M360.6,124.7c1.3,1.5,3.3,3.2,2.9,5.5c-1.3,0.1-2.3-0.8-3.2-1.5c-2.7-2.1-5.1-4.6-7.6-7c-3.3-3.2-7-5.9-10.8-8.7
	c-3.8-2.8-7.8-5.3-12.2-7.3c-4.4-2-9.1-3.6-14.3-5.2c-14.8-4.6-33.7-5.8-53.1-5c-3.2,0.1-6.4,0.2-9.6,0.2c-3,0-6.2,0.2-8.9-0.8
	c0.7-0.9,2.2-1.2,3.4-1.4c3.9-0.7,8.6-0.7,13.2-0.9c5.4-0.3,12.3-0.1,17.8,0.1c5.8,0.2,11.4,0.3,16.8,0.8c10.9,0.9,20.4,3.1,29,6.2
	c13.1,4.6,23.3,11.7,32.3,20.5C357.7,121.5,359.2,123.1,360.6,124.7z"/>
<path d="M360.9,154.6c1,3.8-1.4,6-3.8,7.7c-1.7,1.2-3.9,2.1-6.2,2.4c-5.1,0.6-11-0.7-15.4-1.6c-9.5-1.9-21.2-3.1-31.5-2.1
	c-21.3,2.2-35.5,10-51.1,17.7c-5.1-3-9.9-6.2-14.2-10.1c-1.4-1.3-2.9-2.6-3.8-4.3c-1.2-2.3-1.4-6.7-0.5-9.3c0.8-2.2,2.8-4.1,4.6-5.8
	c5.2-5,12-9.2,18.4-12.7c8.1-4.4,15.9-8.2,27.2-9.2c9.1-0.8,20-0.5,29,0.6c7.2,0.9,14,2.1,20.4,4.3c9.1,3.1,16.1,8.3,22.2,14.8
	C358.1,149,360.2,151.8,360.9,154.6z M336,151c3.5,2,7.7,2.8,11.9,3.8c-1.9-4.1-6.3-8-12.2-7.4c-1.1,0.1-2.3,0.2-2.4,1.1
	C333.2,149.6,335.1,150.4,336,151z M289.8,151.2c0.4-0.9-0.1-2.2-0.4-3.1c-0.6-2-1.2-3.7-1.4-6c-0.1-1.2,0-2.7-0.5-3.2
	c-0.5-0.6-1.8-0.5-2.5-0.4c-2.1,0.2-4.2,0.7-6.1,1.3c-11.3,3.3-20.9,8.2-28.5,15.3c-1.2,1.2-2.8,2.7-2.6,4.7c0.2,2,2.6,4,4.7,4.2
	c1.8,0.2,3.6-0.4,5.2-1c4.7-1.7,9-3.8,13-5.8c3.9-1.9,8.4-4.2,14.2-4.6C286.7,152.4,289.3,152.4,289.8,151.2z"/>
<path class="st0" d="M351.2,299.6c0.1,2.3-2.6,4.1-4.2,5.4c-5.3,4.4-11.1,8.1-16.7,11.9c-5.7,3.9-11.1,7.5-17.3,11.3
	c-1.7,1-4.3,3.2-6.6,2.9c-2.3-0.3-3.9-3.7-4.9-5.7c-2.4-4.5-4.6-9.5-6.2-14.9c-0.8-2.7-1.8-5.8-1.7-8.8c0.1-3.1,1.7-4.8,3.3-5.9
	c1.4-0.9,3.5-1.5,5.8-2.1c6.2-1.5,11.7-4,17.3-6.3c3.5-1.5,7.3-3.1,11-4.8c3.7-1.7,6.9-3.6,11.2-4.5c0.1,0,0.1,0,0.2,0
	c0.5-0.1,1.6-0.2,2.2,0.2c1.3,1,0.8,4,0.9,6.1c0.2,4.5,1.4,8.1,3.1,10.9C349.3,296.4,351.1,297.6,351.2,299.6z"/>
<path class="st0" d="M345.8,236.4c1.8,0,2.7,3.3,2.2,6.2c-0.4,2.7-1.9,4.9-3.3,7.1c-2.7,4.1-6,7.8-9.7,11.1
	c-1.8,1.6-4.4,3.7-6.6,4.2c-1,0.2-2,0.2-2.9,0.4c-9.7,2-17.8,6-26.6,9.4c-1.4,0.5-3,1.2-4.7,1.8c-1.3,0.5-4,1.7-4.8,1.5
	c-1.2-0.3-1.9-3.2-2.3-4.5c-1-3.5-1.8-7.2-2.6-10.9c-0.4-1.7-1.1-4-0.6-5.7c0.6-1.8,3.9-3.3,6.2-4.1c7.6-2.7,16.1-4.8,23.8-7.1
	c9.4-2.9,17.9-5.9,27.5-8.5C342.8,236.9,344.5,236.3,345.8,236.4z"/>
<path class="st0" d="M347.9,154.8c-4.2-1-8.4-1.8-11.9-3.8c-0.9-0.5-2.8-1.3-2.7-2.5c0.1-0.9,1.3-1,2.4-1.1
	C341.6,146.7,346,150.7,347.9,154.8z"/>
<path d="M315.6,216.3c2.3,0.4,4.8,0.9,3.5,3.5c-3.2,0.1-6.7-0.3-10.4-0.6c-6.9-0.5-14.2-0.8-21.1-1.6c-5.1-0.6-10.7-0.9-12.3-5
	c-1-2.5-0.2-7.5,2.2-7.7c3-0.2,0.7,3.2,0.7,4.5c0,4.8,6.7,4.8,11.5,5.3C298.1,215.5,307.4,214.7,315.6,216.3z"/>
<path class="st0" d="M291.4,331.1c0.4,1.2,1.1,3.1,0.7,4.7c-0.5,2-3.4,3-5.4,3.8c-6.7,2.6-14.1,4.6-21.3,6.3s-14.7,3.4-23.2,4.4
	c-2.6,0.3-6.2,0.8-8.1-0.3c-3.4-1.9-3.1-10.2-3.3-15.4c-0.2-3.2-0.3-6-0.3-9c-0.1-3.4,0.2-7.4,1.8-9.2c2.3-2.7,7.7-3.3,11.4-4.3
	c10.7-2.8,19.9-6.1,29.8-9.5c2-0.7,3.8-1.5,6.2-1.8c2.8-0.3,3,1.5,3,5.1c0,2.4,0.2,4.1,0.4,5.2C284.5,319.4,288.8,323.9,291.4,331.1
	z"/>
<path class="st0" d="M289.4,148.1c0.3,0.9,0.8,2.2,0.4,3.1c-0.5,1.3-3,1.3-4.9,1.4c-5.8,0.4-10.3,2.7-14.2,4.6c-4,2-8.3,4.1-13,5.8
	c-1.6,0.6-3.4,1.2-5.2,1c-2.1-0.2-4.5-2.2-4.7-4.2c-0.2-2,1.4-3.5,2.6-4.7c7.6-7.1,17.2-12,28.5-15.3c1.9-0.6,4-1.1,6.1-1.3
	c0.7-0.1,2-0.2,2.5,0.4c0.5,0.5,0.4,2,0.5,3.2C288.2,144.3,288.8,146,289.4,148.1z"/>
<path class="st0" d="M275.5,274.6c0.4,1.6,1.3,3.8,1,5.3c-0.4,1.9-2.9,2.9-4.9,3.7c-6.2,2.4-13.4,3.9-20.6,5.2
	c-6.4,1.2-14.7,2.8-23.3,2.5c-2.9-0.1-6-0.3-6.9-1.7c-1.3-1.9-0.6-6-0.4-8.9c0.3-3.7,0.4-7.1,2-9c2-2.4,6.6-3.5,10.4-4.4
	c8.1-2,16.1-3.4,24.6-5c2-0.4,4.1-0.8,6.2-1.2c2.3-0.4,4.7-1,6.8-1.2c2.5,2.3,2.9,5.6,3.8,9.4C274.5,270.8,275,272.6,275.5,274.6z"
	/>
<path class="st0" d="M0,46.6c92.1,0,184.2,0,276.4,0c-34.3,0.8-69,0.4-101,3.6c-15.7,1.6-31.2,3.9-45.9,6.4
	c-14.9,2.5-28.9,5.9-41.2,11.1C76.1,72.8,65,79.5,55.3,87c-5,3.8-9.7,8-13.3,12.9c-2,2.6-3.7,5.2-4.6,8.5c-0.9,3.4-0.6,7.5-1.2,11.8
	c-1.1,7.8-3.2,14-7.3,18.9c-2,2.4-4.2,4.5-6.7,6.4c-2.4,1.8-5,3.5-7.3,5.7c-8.8,8.6-15.5,19.2-14.8,37.4c0,0.1,0,0.2-0.1,0.2
	C0,141.4,0,94,0,46.6z"/>
<path d="M271.1,214.6c1,2.6,1,6.1,1,10.1c0,5.3-0.3,9.4-2.3,12.2c-1.5,2.1-5,4.6-8,6.1c-1,0.5-2.5,1.2-3.5,1.1
	c-1.3-0.2-2.1-1.5-2.6-2.3c-0.8-1.3-1.7-3.2-1.1-5.5c0.8-2.8,3.1-3.6,4.7-5.8c1.6-2.1,3.5-6.3,2-10c-1.4-3.3-7.3-4.1-11.3-4.9
	c-2.1-0.4-4.2-0.4-6.8-1.3c-1.8-0.6-3.8-2.2-3.7-4.3c0.1-2.1,2.4-3,4.1-3.6c2.2-0.8,4.4-0.9,6.8-1
	C259.5,204.9,268.5,207.7,271.1,214.6z"/>
<path d="M255.1,97.7c0.3,1.5-0.8,2.7-1.6,3.7c-2.3,3.1-4.8,5.8-6.7,9.6c-1.8,3.7-3,7.5-4,12.4c-0.3,1.4-0.4,3-1.3,4.1
	c-0.7-6.7-0.3-13.3,2.1-18.6c1.1-2.5,2.6-4.5,4.3-6.4c1.6-1.8,4-4.3,6.3-4.9C254.5,97.5,254.7,97.4,255.1,97.7z"/>
<path d="M238.6,224c5.7,0.5,9.2,1.2,8.8,7.6c-0.2,3.4-2,7.1-4.7,7c-2.3,0-2.6-2.1-3.9-2.9c-1.5-0.9-4.5-1.2-7-1.4
	c-5.6-0.4-10.3,0.5-16.2-0.1c-2.5-0.3-5.2-0.9-5.5-2.8c-0.5-3.3,4.7-5.1,7.1-5.9c3.8-1.2,7.4-1.5,11.5-1.7
	C231.9,223.6,235.4,223.7,238.6,224z"/>
<path class="st0" d="M219.8,326.1c0.6,6.3,1,12.6,0.6,18.9c-0.2,3.1-0.5,6.5-2.3,7.5c-1.8,1.1-5.5,0.9-7.8,1.1
	c-5.4,0.4-11,0.7-17.4,0.4c-3.6-0.2-7.2-0.2-8.9-2.2c-1.2-1.4-1.4-3.9-1.9-6.1c-1-4.6-1.9-8.6-2.7-13.3c-0.3-1.9-0.8-5.9,0.1-7.5
	c1.1-1.9,5-2.2,8.2-2.5c8.4-0.7,16.5-1.3,24-2.8c1.5-0.3,2.8-0.9,4.4-1.1c0,0,0.8-0.2,1.4,0C219.1,319.1,219.5,323.3,219.8,326.1z"
	/>
<path class="st0" d="M209.4,280.7c0,3.2,0.2,6.9-1.3,8.5c-2.4,2.7-11.9,2.1-17.3,2.1c-3.2,0-6.6,0-9.6-0.1c-2.8-0.1-6.7-0.3-7.7-1.9
	c-1.1-1.9,0.2-5.8,0.6-7.9c0.6-2.7,1.1-5,2-7.3c8.5-1.1,17.1-2.7,26-3.1c2.6-0.1,4.9,0,6,1.1C209.5,273.5,209.4,277.4,209.4,280.7z"
	/>
<path d="M198.3,162.7c0.1,1.4-1.6,2.9-2.5,3.6c-1.1,1-2.4,1.8-3.6,2.5c-3.9,2.3-9.1,3.6-10.7,7.9c-1.1,3.1-0.8,7.1-0.9,10.8
	c-0.1,3.9-0.3,7.4-1.4,10.3c-1,2.8-2.8,4.8-4.9,6.8c-1.8,1.8-4.1,3.7-6.8,4.9c-1,0.5-2.3,0.5-3.3,1c-2.6,1.2-6.2,6-5.8,9.9
	c0.3,2.9,2.3,5.7,3.9,7.9c3.3,4.5,6.9,8.6,11.6,12c2.2,1.6,6.2,4,9.9,3.1c2.7-0.7,4.6-4.1,7.9-3.8c2.5,0.2,5.4,3.8,4.2,7.2
	c-1.9,5.1-8.8,7-14.9,7.4c-7,0.5-10.5-1.7-14.2-5.1c-5.2-4.8-9.5-9.8-14.8-14.4c-1.6-1.4-3.9-3.6-6.2-3.5c-1.8,0.1-2.5,2.2-4.4,2.2
	c-2.9,0-3.6-4.4-6.3-5.2c-2.6-0.7-5.8,0.7-8.2,1.6c-5.3,1.9-9.3,3.7-14,6.2c-2.2,1.2-4.5,2.6-7.2,2.7c0-1.7,1.6-2.7,2.7-3.7
	c3.4-3,7.6-5.8,13.1-6.5c3.4-0.5,6.3-2.6,8.6-4.5c2.3-1.9,4.5-4.5,6.6-6.4c7-6.4,14.4-11.4,22.7-16.5c2.8-1.8,5.6-3.4,7.3-5.7
	c1.5-2.2,2.3-5,2.7-8.8c0.4-3.8,1.1-9-0.5-11.5c-1.1-1.8-4.1-3.2-6.6-4.2c-7.6-3.1-16.9-4.7-26.3-5.8c-9.4-1.1-19.9-1.7-29-3.2
	c-2.7-0.5-6.4-1-8.5-2.2c-1.7-0.9-4.2-3.1-4.2-5.6c0-2.6,2.8-5,4.2-6.4c3.7-3.5,7.9-6.2,13.8-7.3c9.7-1.8,23.8-0.9,33.4,0.5
	c7.5,1.1,13.1,3.4,18.3,6.5c5.1,3,9,7.3,15,9.8c2.8,1.2,6.1,1.7,10.5,1.9c1.7,0.1,3.6,0.4,5.3,0.9
	C196.1,160.4,198.2,161.2,198.3,162.7z M126.9,151.7c2.1-0.1,4.3,0.2,5.9-0.6c-2.4-0.8-5.8-0.9-9-0.8c-2.6,0.1-5.3,0-7.1,1
	C119.7,151.8,123.5,151.8,126.9,151.7z"/>
<path d="M205.8,375.9c-8.4,0.8-17.6,0.6-26.8,0.6c-9.2,0-18.4,0.2-26.7-0.6C169.4,375,188.7,375.1,205.8,375.9z"/>
<path d="M176.1,102.8c1.2,0.3,4.8,1.3,4.4,2.8c-0.5,1.6-5.3,0.5-6.4,0.2c-10.6-2.6-21.8-3.5-34.1-4.4c-4.8-0.3-10.1-0.8-14.6,0
	c-4,0.7-7.8,2.5-11.1,4.3c-6.7,3.7-13.2,7.5-17,13.8c-1.5,2.4-2.3,5.3-3.6,8c-0.3,0.7-0.7,1.8-1.7,1.9c-0.8-11.4,4.9-16.9,11.9-21.7
	c3.3-2.2,7-4.1,11-6c4.2-2,8.5-3.5,13.6-3.8c5-0.3,9.8,0.2,14.4,0.6c9.2,0.7,18,1.6,26.9,3.1C171.9,101.9,173.6,102.1,176.1,102.8z"
	/>
<path d="M171.2,115.7c4,5.6,4.3,18.3,2.7,27c-0.7-1.2-0.4-2.7-0.5-4.1c-0.3-7.1-1.3-13.7-4.2-18.8c-0.5-0.8-1.1-1.5-1.7-2.9
	c-0.4-0.9-1.6-4.5,1.2-3.4C169.5,113.8,170.6,114.9,171.2,115.7z"/>
<path class="st0" d="M170.6,346c0.3,2,1.2,5.5-0.1,7c-1.4,1.6-6.6,1-9.2,0.8c-3.2-0.2-6.6-0.5-8.6-1.8c-1.5-1-2.8-3.3-3.9-5.1
	c-2.4-3.9-4.1-7.5-6-11.9c-0.8-1.8-2.5-4.8-1.8-6.9c0.8-2.4,8.5-2.3,11.7-2.4c3.4-0.2,10.2-0.4,12.4,1.4c1.4,1.2,1.9,3.7,2.5,5.7
	C168.9,337.2,169.7,340.8,170.6,346z"/>
<path class="st0" d="M162.6,276.6c0.8,1.6,0.3,5,0.1,7.2c-0.3,2.4-0.5,4.9-1.8,6c-1.6,1.4-6.4,1.4-9.8,1.2
	c-7.6-0.4-13.3-0.6-20.2-1.8c-2.4-0.4-7.1-0.9-8-2.9c-0.5-1.2-0.1-3.1,0.3-4.5c0.3-1.3,0.8-2.7,1.2-3.9c1.2-3.9,1.7-7.1,6-7.6
	c2.8-0.3,6.1,0.2,9,0.6c5.7,0.7,10.7,1.3,16.6,2.5C158.9,273.9,161.5,274.5,162.6,276.6z"/>
<path class="st0" d="M134.6,346.6c0.4,1.1,1.1,2.6,0.7,3.5c-0.8,1.9-7.1,0.3-8.8,0c-1.4-0.3-2.9-0.5-4.3-1c-1-0.4-3-1.2-3.2-2.1
	c-0.1-0.6,0.4-1.1,0.4-1.9c0.1-1.8-1-4.3-1.7-6.2c-1.9-5.1-4.2-8.3-6.2-13.3c-0.5-1.3-1-2.5,0.2-2.8c1.6-0.4,4.5,1,6.4,1.4
	c1.1,0.2,2.2,0.4,3.3,0.6c1.1,0.2,2.5,0.1,3.5,0.4c1.5,0.5,2.9,3.4,3.8,5.1C131.2,335.4,132.5,340.9,134.6,346.6z"/>
<path class="st0" d="M132.8,151.1c-1.6,0.8-3.8,0.5-5.9,0.6c-3.4,0.2-7.2,0.1-10.2-0.4c1.8-1,4.5-0.9,7.1-1
	C127,150.1,130.4,150.2,132.8,151.1z"/>
<path d="M125.4,192.4c0.1,4.2-3.6,7-6.3,8.6c-4.7,2.8-11.5,3.6-18.9,3.9c-4.9,0.2-9.6-0.2-11.8-2.7c-1.5-1.7-2-4.2-3.3-6.2
	c-1.2-1.9-2.5-3.7-4.6-4.8c-3.1-1.7-7.8-2.1-12.1-1.9c-4.6,0.2-8.1,0.8-11.7,2.4c-1.7,0.7-3.3,1.9-5.2,2.8c-1.5,0.7-4,2.1-6.3,1.6
	c-1.6-0.3-3.1-2.4-3.2-4.3c-0.1-0.9,0-1.4,0.5-2.6c1.5-4,5.7-6.7,10.1-8.2c5-1.7,10.6-2.1,16.2-2.2c0,0,0-0.1,0.1-0.1
	c9.3-0.1,15.2,1.6,20.6,4.9c2.5,1.5,5.2,3.6,7.5,5.2c2.4,1.7,5.5,4.5,9.3,4.3c2.8-0.1,5.2-1.8,7.9-3
	C118.1,188.3,125.2,186.1,125.4,192.4z"/>
<path class="st0" d="M114.2,268.3c0.2,1.6-0.6,3.5-1,5c-0.4,1.6-0.8,3.3-1.1,4.9c-0.6,3.7-0.2,7.4-1.9,10c-5.2-1.3-10.1-1-12.6-4.9
	c-2.6-4-3.7-13.1-2.5-19.3c0.4-1.9,1.5-5.4,3.1-5.3c1.8,0.1,3.3,0.8,4.7,1.5c1.4,0.6,2.7,1.2,4.2,1.9
	C109.5,263.4,113.8,265.2,114.2,268.3z"/>
<path class="st0" d="M106.1,341.6c0.5,1.2,1.2,2.5,1.1,3.9c-2.1,0.8-4.3-0.2-6.4-0.7c-4.2-1.1-8.1-2-11.8-3.8
	c-1.7-0.8-3.7-1.8-4.1-3.7c1.7-1.2,4.7-0.5,5.9-1c1.5-0.7,1.9-2.2,1.7-4.8c-0.2-3.6-1.6-6.4-2.4-9.8c-0.6-2.4-0.2-4,2.3-2.9
	c1.9,0.9,3.6,3.7,4.9,5.6C100.7,329.6,103.6,335.7,106.1,341.6z"/>
<path d="M82.7,153.5c2.1-0.1,5.3,0.3,5.1,2.3c-0.2,2.3-6.8,2.2-9.6,2.2c-4,0-7.6,0.1-11.7,0.1c-7,0-16.7-1.1-21.6,1.4
	c-2.5,1.3-4.2,3.6-6.3,5.5c-2,1.9-4.3,3.6-6.6,5.2c-2.6,1.7-5.1,2.9-7,4.8c-5.6,5.6-9.5,15.8-8,26.6c0.5,3.2,1.3,6.5,2.1,9.7
	c0.8,3.3,1.6,6.3,2.8,9c2.5,5.6,7.5,7.7,13.1,10.5c3.9,2,7.8,3.7,12,5.7c0.6,0.3,3.5,1.5,2.9,2.7c-0.6,1.1-4.6-0.3-5.7-0.7
	c-8.3-2.8-17.6-6.8-23.1-12.5c-2.3-2.4-3.4-5.8-4.4-9.8c-1.3-5.3-2.8-11.6-2.8-18.6c0-2.3-0.2-4.8,0.1-7c0.8-5.4,3.5-11,6.1-15.3
	c0.8-1.4,1.9-3.3,3-4.1c0.7-0.5,1.6-0.6,2.4-1c3.8-2.1,7.1-5.2,10.3-7.9c3.4-2.9,6.5-5.7,11.7-6.5c5.2-0.8,11.2-0.4,17.6-0.6
	c4.4-0.2,8.7-0.4,12.7-1C79.5,153.9,80.8,153.6,82.7,153.5z"/>
<path class="st0" d="M83.1,248.4c1.8-0.4,1.7,5.2,1.7,7.4c0,6.4-0.6,10.8-1.4,16.6c-0.3,2.2-0.9,6.3-2.3,6.6c-1.5,0.3-3-1.3-4-2
	c-1.6-1.2-3.1-2.2-3.2-4.5c-0.2-2.4,0.8-4.9,1.4-6.9c1.7-5.5,4.1-13.7,7.5-17.1C82.9,248.5,83,248.5,83.1,248.4z"/>
<path class="st0" d="M80.3,331.4c0.2,1,0.4,3.4-0.7,3.5c-0.9,0.1-1.5-1.7-1.9-2.6c-2.2-5.1-4.5-10.4-6.6-15.6
	c-0.8-2.1-1.6-4.4-2-6.9c0.1-0.1,0.1-0.2,0.1-0.3c0.1,0,0.1,0,0.1,0.1c0.1,0,0.1,0,0.2,0c2.8,3.4,4.9,7.3,7,11.6
	C78,324.3,79.5,327.5,80.3,331.4z"/>
<path d="M52.2,170.1c-0.3,1.3-1.6,2.1-2.6,2.8c-3.9,2.7-9.9,4.1-12.7,8c-1.9,2.7-2.6,6.9-3.2,10.9c-0.6,4.1-1.5,8.1-1.5,12.5
	c0,5.2,2.6,7.6,5.4,10.2c2.1,1.9,3.9,3.7,5.7,6c0.5,0.7,1.4,1.5,0.9,2.5c-1.6,0.5-3.1-0.6-4.4-1.4c-1.2-0.8-2.4-1.8-3.4-2.7
	c-3-2.6-6.5-5.9-6.9-10.9c-0.2-2.9,0.1-5.8,0.3-8.6c0.4-5.2,1.2-10.5,2.3-15.4c0.7-2.9,1.4-6.1,3.1-7.8c1.5-1.5,4.6-2.9,6.9-3.9
	c2.7-1.1,5.8-2.5,8.5-2.6C51.3,169.6,51.8,169.6,52.2,170.1z"/>
<path d="M0,204c0,0.9,0,1.7,0,2.6C0,205.7,0,204.8,0,204z"/>
</svg>
