<svg id="a0817dfd-2f58-4640-8eab-007dffa13eb8" data-name="Layer 1" xmlns="http://www.w3.org/2000/svg" viewBox="0 0 24 24"><defs><style>.e655501d-639a-4aab-8a62-0d368498a9d9{fill-opacity:0;}.e2dfb550-8cc3-42a5-8883-f39588cd0788{stroke:#000;stroke-linecap:round;stroke-linejoin:round;stroke-opacity:0;stroke-width:2px;}</style></defs><title>list-ul</title><path class="e655501d-639a-4aab-8a62-0d368498a9d9" d="M0,0H24V24H0Z"/><path class="e2dfb550-8cc3-42a5-8883-f39588cd0788" d="M6,7A1,1,0,1,1,7,8,1,1,0,0,1,6,7Zm1,6a1,1,0,1,0-1-1A1,1,0,0,0,7,13Zm0,5a1,1,0,1,0-1-1A1,1,0,0,0,7,18ZM10,6a1,1,0,0,0,0,2h7a1,1,0,0,0,0-2Zm0,5a1,1,0,0,0,0,2h7a1,1,0,0,0,0-2Zm0,5a1,1,0,0,0,0,2h7a1,1,0,0,0,0-2ZM18,2a4,4,0,0,1,4,4V18a4,4,0,0,1-4,4H6a4,4,0,0,1-4-4V6A4,4,0,0,1,6,2ZM4,6V18a2,2,0,0,0,2,2H18a2,2,0,0,0,2-2V6a2,2,0,0,0-2-2H6A2,2,0,0,0,4,6Z"/></svg>