<svg id="a01a028d-7563-4273-a798-97f66c83157a" data-name="Layer 1" xmlns="http://www.w3.org/2000/svg" viewBox="0 0 24 24"><defs><style>.efa2b792-c2f0-44f2-aa20-ceef28a318f7{fill-opacity:0;}</style></defs><title>question-circle</title><path class="efa2b792-c2f0-44f2-aa20-ceef28a318f7" d="M0,0H24V24H0Z"/><path d="M12,2A10,10,0,1,0,22,12,10,10,0,0,0,12,2Zm0,2a8,8,0,1,1-8,8A8,8,0,0,1,12,4Zm0,11a1,1,0,1,1-1,1A1,1,0,0,1,12,15Zm3-5a4.09,4.09,0,0,1-1.38,2.91,7.21,7.21,0,0,1-.56.53l-.4.31a1,1,0,0,1-1.41-.09,1,1,0,0,1,.13-1.44l.37-.31.47-.41A2.2,2.2,0,0,0,13,10a1,1,0,0,0-1-1,1,1,0,0,0-1,.75,1,1,0,0,1-1.22.72,1,1,0,0,1-.72-1.25A3,3,0,0,1,15,10Z"/></svg>