<svg id="b7e73e0d-ad2c-4233-8899-358aa1449fb3" data-name="Layer 1" xmlns="http://www.w3.org/2000/svg" viewBox="0 0 24 24"><defs><style>.b6423f34-33ac-456d-bc9c-6b66b563e471{fill:none;stroke:#ff7000;stroke-linecap:round;stroke-linejoin:round;stroke-opacity:0;stroke-width:2px;}</style></defs><title>share</title><path class="b6423f34-33ac-456d-bc9c-6b66b563e471" d="M0,0H24V24H0Z"/><path d="M18,2a4,4,0,0,0-4,4,3.86,3.86,0,0,0,.09.84L9,9.38a4,4,0,1,0,0,5.24l5.09,2.54A3.86,3.86,0,0,0,14,18a4,4,0,1,0,1-2.62L9.91,12.84a4,4,0,0,0,0-1.68L15,8.62A4,4,0,1,0,18,2Zm0,2a2,2,0,1,1-2,2A2,2,0,0,1,18,4ZM6,10a2,2,0,1,1-2,2A2,2,0,0,1,6,10Zm12,6a2,2,0,1,1-2,2A2,2,0,0,1,18,16Z"/></svg>