<svg id="fa060efd-52de-4930-ad05-754ba0687659" data-name="Layer 1" xmlns="http://www.w3.org/2000/svg" viewBox="0 0 24 24"><defs><style>.a3d7e307-3561-4f34-8c12-d0396a06d343{fill-opacity:0;}</style></defs><title>star</title><path class="a3d7e307-3561-4f34-8c12-d0396a06d343" d="M0,0H24V24H0Z"/><path d="M12,2.53a1.68,1.68,0,0,0-1.47,1.06L8.44,7.91l-4.78.68a1.57,1.57,0,0,0-.91,2.82l3.44,3.34-.82,4.72a1.58,1.58,0,0,0,2.41,1.75L12,19l4.25,2.25a1.56,1.56,0,0,0,2.37-1.75l-.81-4.72,3.44-3.34a1.57,1.57,0,0,0-.91-2.82l-4.78-.68L13.47,3.59A1.69,1.69,0,0,0,12,2.53Zm0,2.59,2,4.16a1,1,0,0,0,.75.53l4.59.66L16,13.69a1,1,0,0,0-.28.9l.78,4.53L12.47,17a1,1,0,0,0-.94,0L7.47,19.12l.78-4.53a1.06,1.06,0,0,0-.28-.9L4.62,10.47l4.6-.63A1,1,0,0,0,10,9.28Z"/></svg>